<svg width="516" height="106" viewBox="0 0 516 106" fill="none" xmlns="http://www.w3.org/2000/svg">
<g clip-path="url(#clip0_11408_4200)">
<path d="M172.192 22.7102V32.468H146.432V48.9343H167.075V58.3436H146.432V84.2192H134.203V22.7102H172.192ZM222.063 22.7102V32.468H205.15V84.2192H192.921V32.468H176.095V22.7102H222.063ZM294.832 23.4071V84.2192H282.689V41.7902L267.164 84.2192H256.583L241.057 41.9644V84.2192H228.828V23.4071H243.659L262.047 69.1469L280.087 23.4071H294.832ZM347.999 67.4044C348.022 70.4547 347.212 73.4531 345.657 76.0732C343.992 78.812 341.585 81.0181 338.718 82.4332C335.235 84.1239 331.397 84.9458 327.53 84.8291C323.545 84.8976 319.589 84.1414 315.908 82.6074C312.654 81.2493 309.823 79.0376 307.711 76.2039C305.636 73.3552 304.417 69.969 304.199 66.446H317.209C317.435 68.8143 318.496 71.0233 320.201 72.6754C321.115 73.5217 322.188 74.177 323.357 74.6033C324.526 75.0296 325.767 75.2182 327.009 75.1584C328.072 75.2299 329.138 75.0855 330.144 74.7337C331.15 74.3819 332.075 73.83 332.864 73.111C333.543 72.4183 334.074 71.5934 334.425 70.687C334.775 69.7806 334.938 68.8118 334.902 67.84C334.966 66.1055 334.378 64.4103 333.254 63.0918C332.097 61.8009 330.678 60.7757 329.091 60.086C327.414 59.331 325.101 58.4597 322.152 57.4724C318.941 56.442 315.811 55.1753 312.785 53.6825C310.312 52.3949 308.185 50.527 306.584 48.2373C304.77 45.4805 303.874 42.2163 304.025 38.9151C303.925 36.529 304.387 34.1527 305.374 31.9801C306.361 29.8075 307.846 27.8999 309.706 26.4129C313.493 23.3636 318.509 21.8389 324.754 21.8389C331.23 21.8389 336.391 23.4071 340.236 26.5436C342.126 28.0714 343.683 29.9738 344.809 32.1321C345.936 34.2905 346.608 36.6587 346.784 39.0893H333.601C333.319 37.01 332.34 35.0892 330.825 33.6441C329.13 32.1506 326.919 31.3843 324.667 31.5096C322.69 31.4163 320.747 32.0514 319.203 33.2956C318.491 33.9471 317.934 34.7515 317.574 35.6489C317.213 36.5464 317.059 37.5138 317.122 38.4795C317.066 40.1261 317.64 41.7317 318.726 42.9663C319.871 44.2108 321.258 45.2045 322.803 45.885C324.997 46.8473 327.241 47.6907 329.525 48.4115C332.792 49.5313 335.992 50.8404 339.108 52.3321C341.628 53.6055 343.79 55.4925 345.397 57.8208C347.246 60.6609 348.156 64.0145 347.999 67.4044ZM378.615 35.343C384.207 35.1452 389.689 36.9345 394.097 40.3962C398.289 43.8635 401.054 48.7673 401.859 54.1617H388.936C388.518 51.7781 387.255 49.6273 385.38 48.1066C383.365 46.5712 380.882 45.786 378.355 45.885C376.822 45.8552 375.302 46.1635 373.9 46.7882C372.499 47.4129 371.252 48.3388 370.245 49.5006C368.077 51.911 366.993 55.4395 366.993 60.086C366.993 64.7326 368.077 68.2611 370.245 70.6715C371.252 71.8333 372.499 72.7592 373.9 73.3839C375.302 74.0086 376.822 74.3169 378.355 74.2871C380.882 74.3861 383.365 73.6009 385.38 72.0655C387.255 70.5448 388.518 68.394 388.936 66.0104H401.859C401.054 71.4048 398.289 76.3086 394.097 79.7759C389.689 83.2376 384.207 85.0269 378.615 84.8291C374.265 84.9105 369.966 83.876 366.126 81.8233C362.52 79.8567 359.565 76.8737 357.626 73.2417C355.521 69.1854 354.477 64.6587 354.59 60.086C354.48 55.4998 355.525 50.96 357.626 46.8869C359.549 43.2425 362.507 40.2552 366.126 38.3052C369.975 36.28 374.27 35.2613 378.615 35.343ZM429.354 35.343C433.03 35.2387 436.655 36.2398 439.761 38.2181C442.596 40.0642 444.757 42.7854 445.919 45.9721V35.9529H458.062V84.2192H445.919V74.1129C444.751 77.3074 442.592 80.0408 439.761 81.9104C436.665 83.9157 433.036 84.9331 429.354 84.8291C425.507 84.884 421.722 83.858 418.425 81.8669C415.116 79.8121 412.477 76.8288 410.836 73.2852C408.933 69.1533 407.998 64.6378 408.104 60.086C407.998 55.5343 408.933 51.0188 410.836 46.8869C412.477 43.3433 415.116 40.36 418.425 38.3052C421.722 36.3141 425.507 35.2881 429.354 35.343ZM433.17 46.0592C431.46 45.9866 429.754 46.2835 428.168 46.9298C426.582 47.576 425.152 48.5567 423.976 49.8055C421.538 52.652 420.295 56.3373 420.507 60.086C420.289 63.8224 421.534 67.4961 423.976 70.323C425.159 71.5602 426.591 72.5303 428.176 73.1687C429.761 73.8072 431.463 74.0993 433.17 74.0258C434.875 74.0777 436.571 73.7669 438.148 73.1137C439.725 72.4606 441.147 71.4798 442.32 70.2359C444.811 67.465 446.105 63.8147 445.919 60.086C446.115 56.3298 444.821 52.6487 442.32 49.8491C441.147 48.6051 439.725 47.6244 438.148 46.9713C436.571 46.3181 434.875 46.0073 433.17 46.0592ZM497.785 35.2559C500.262 35.1445 502.733 35.578 505.025 36.5261C507.317 37.4742 509.375 38.914 511.055 40.7447C514.351 44.4039 515.999 49.5441 515.999 56.1655V84.2192H503.857V57.5595C504.058 54.312 503.001 51.1121 500.908 48.6293C499.867 47.5524 498.608 46.7116 497.217 46.1631C495.826 45.6147 494.334 45.3713 492.842 45.4493C491.292 45.3811 489.746 45.6493 488.309 46.2357C486.873 46.8221 485.578 47.7128 484.515 48.8471C482.434 51.1123 481.393 54.365 481.393 58.605V84.2192H469.164V35.9529H481.393V45.6236C482.595 42.4557 484.806 39.7756 487.681 38.0003C490.72 36.1376 494.226 35.1854 497.785 35.2559Z" fill="#001F68"/>
<path fill-rule="evenodd" clip-rule="evenodd" d="M14.4554 0H91.069C99.0525 0 105.524 6.50107 105.524 14.5205V91.4794C105.524 99.4989 99.0525 106 91.069 106H14.4554C6.4719 106 0 99.4989 0 91.4794V14.5205C0 6.50107 6.4719 0 14.4554 0ZM52.7981 13.4731C51.0888 13.4731 49.4103 13.9245 47.9309 14.7813L47.9257 14.7843L22.6038 29.3166L22.6038 29.3166L22.5925 29.3231C21.3622 30.0378 20.3065 31.0119 19.4957 32.1735C19.3248 32.3348 19.174 32.5231 19.05 32.7366C18.9379 32.9295 18.8545 33.1312 18.7985 33.3367C18.101 34.708 17.7355 36.2271 17.7344 37.7705V37.7723V66.8482V66.85C17.7356 68.5603 18.1843 70.2409 19.0364 71.7234C19.8886 73.206 21.1145 74.4389 22.5925 75.2974L22.6037 75.3039L47.9257 89.8377L47.931 89.8408C49.0207 90.4718 50.2184 90.883 51.4569 91.0558C51.8444 91.3026 52.3046 91.4456 52.7981 91.4456C53.2916 91.4456 53.7517 91.3026 54.1392 91.0558C55.3777 90.883 56.5754 90.4718 57.6651 89.8408L57.6705 89.8377L82.9882 75.3038L82.9978 75.2982C84.4768 74.4405 85.704 73.2079 86.5572 71.7253C87.4103 70.2427 87.8599 68.5618 87.8617 66.8509V66.8482V37.7723V37.7705C87.8606 36.2225 87.4929 34.6989 86.7914 33.3245C86.7354 33.1231 86.6531 32.9256 86.5432 32.7365C86.4212 32.5266 86.2734 32.341 86.1061 32.1816C85.2945 31.0164 84.2368 30.0395 83.0036 29.3231L82.9923 29.3166L57.6705 14.7843L57.6655 14.7814C56.186 13.9246 54.5074 13.4731 52.7981 13.4731ZM55.2981 85.4343L80.4893 70.973L80.4932 70.9707C81.2103 70.554 81.8073 69.9546 82.2235 69.2314C82.6405 68.5068 82.8609 67.684 82.8617 66.8456V37.7741L82.8617 37.7673L55.2981 53.7852V85.4343ZM50.2981 53.7853L22.7344 37.7689L22.7344 37.7732V66.8473C22.7351 67.6852 22.9551 68.5075 23.3714 69.2318C23.7868 69.9545 24.3828 70.5538 25.0988 70.9709L25.1039 70.9739L50.2981 85.4343V53.7853ZM52.798 49.4551L80.2452 33.5049L55.1718 19.1152L55.162 19.1095C54.4426 18.6923 53.6273 18.4731 52.7981 18.4731C51.9688 18.4731 51.1536 18.6923 50.4341 19.1095L50.4243 19.1152L25.3496 33.5057L52.798 49.4551Z" fill="#001F68"/>
</g>
<defs>
<clipPath id="clip0_11408_4200">
<rect width="516" height="106" fill="white"/>
</clipPath>
</defs>
</svg>
